<?xml version="1.0" standalone="no"?>
<!DOCTYPE svg PUBLIC "-//W3C//DTD SVG 20010904//EN"
 "http://www.w3.org/TR/2001/REC-SVG-20010904/DTD/svg10.dtd">
<svg version="1.0" xmlns="http://www.w3.org/2000/svg"
 width="1575.000000pt" height="1575.000000pt" viewBox="0 0 1575.000000 1575.000000"
 preserveAspectRatio="xMidYMid meet">

<g transform="translate(0.000000,1575.000000) scale(0.100000,-0.100000)"
fill="#000000" stroke="none">
<path d="M4550 11455 l0 -1035 1136 0 c712 0 1134 4 1132 9 -1 6 -273 471
-603 1035 l-600 1025 -532 1 -533 0 0 -1035z"/>
<path d="M8046 12468 c-88 -140 -1196 -2054 -1194 -2063 2 -7 464 -805 1028
-1775 l1025 -1762 6 1444 c3 794 7 1593 8 1776 l1 332 1135 0 1135 0 0 1035 0
1035 -1565 0 -1565 0 -14 -22z"/>
</g>
</svg>
